# xmcd CD database file
#
# Track frame offsets:
#	150
#	42849
#	75131
#	114614
#	145423
#	180218
#	226688
#
# Disc length: 3763 seconds
#
# Revision: 1
# Processed by: cddbd v1.5.2PL0 Copyright (c) Steve Scherf et al.
# Submitted via: CDex 1.70beta2
#
DISCID=450eb107
DTITLE=CATERINA PALAZZI QUARTET - SUDOKU KILLER
DYEAR=2010
DGENRE=Jazz
TTITLE0=LA LETTERA SCARLATTA
TTITLE1=VAMPIRI
TTITLE2=BERLINO EST
TTITLE3=DELITTO E CASTIGO
TTITLE4=LA VEDOVA NERA
TTITLE5=VIAGGIO IN ITALIA
TTITLE6=LA GUERRA DEI MONDI
EXTD=YEAR: 2010
EXTT0=
EXTT1=
EXTT2=
EXTT3=
EXTT4=
EXTT5=
EXTT6=
PLAYORDER=
